<svg width="600" height="206" viewBox="0 0 600 206" fill="none" xmlns="http://www.w3.org/2000/svg">
<path d="M60.4 143.1V0L0.0999756 104.7L60.4 143.1Z" fill="#FFE94D"/>
<path d="M60.4 0L120.7 104.7L60.4 143.1V0Z" fill="#FF9C92"/>
<path d="M0.0999756 117.1L60.5 155.6V205.2" fill="#53D3E0"/>
<path d="M120.7 117.1L60.4 155.6V205.2" fill="#5A9DED"/>
<path opacity="0.75" d="M60.4 70.4L0 104.7L60.4 143.1V70.4Z" fill="#88D848"/>
<path opacity="0.75" d="M60.4 70.4L120.7 104.7L60.4 143.1V70.4Z" fill="#CC71C3"/>
<path d="M159.8 66.9C160 74.3 165.4 77.8 171.5 77.8C175.4 77.8 179.3 76.2 180.9 72.6H191.1C188.8 82.2 180.1 87.2 171 87.2C160.1 87.2 149.2 79.8 149.2 63.7C149.2 48.1 159.5 40.1 171.1 40.1C182.1 40.1 191.5 47.4 191.5 62.4V66.9H159.8ZM160.1 58.8H180.7C180.7 52.8 176.5 49.4 170.9 49.4C165.9 49.5 161 52.2 160.1 58.8ZM226.1 86.2H218.9C210.3 86.2 205 83.5 205 71.4V50.7H196.8V40.9H205.1V30.7L216 27.7V40.9H225V50.7H216V71.1C216 74.2 216.9 76.5 221.4 76.5H226L226.1 86.2ZM276.5 57V86.2H265.6V57.9C265.6 52.8 262.5 49.8 257.1 49.8C250.6 49.8 247.1 54.3 247.1 61.7V86.2H236.2V23.6H247.2V47.6C249.7 43.3 253.3 40.1 261 40.1C271.2 40 276.5 46.2 276.5 57ZM297.6 66.9C297.8 74.3 303.2 77.8 309.3 77.8C313.2 77.8 317.1 76.2 318.7 72.6H328.9C326.6 82.2 317.9 87.2 308.8 87.2C297.9 87.2 287 79.8 287 63.7C287 48.1 297.3 40.1 308.9 40.1C319.9 40.1 329.3 47.4 329.3 62.4V66.9H297.6ZM297.9 58.8H318.5C318.5 52.8 314.3 49.4 308.7 49.4C303.7 49.5 298.9 52.2 297.9 58.8ZM366 51H363.1C355.5 51 351.3 55.2 351.3 64.1V86.2H340.4V40.9H351.3V47.6C353.6 42.6 357.8 40.4 363.1 40.4H366.1L366 51ZM381.8 66.9C382 74.3 387.4 77.8 393.5 77.8C397.4 77.8 401.3 76.2 402.9 72.6H413.1C410.8 82.2 402.1 87.2 393 87.2C382.1 87.2 371.2 79.8 371.2 63.7C371.2 48.1 381.5 40.1 393.1 40.1C404.1 40.1 413.5 47.4 413.5 62.4V66.9H381.8ZM382.1 58.8H402.7C402.7 52.8 398.5 49.4 392.9 49.4C387.9 49.5 383 52.2 382.1 58.8ZM463.6 86.2H452.9V79.7C450.2 83.9 446.5 86.6 440.3 86.6C430.8 86.6 424 80.5 424 68.9V40.8H434.9V68.2C434.9 74.3 438.1 77 442.8 77C447.9 77 452.6 73.2 452.6 62.8V40.8H463.5L463.6 86.2ZM542.4 55.7V86.3H531.5V57.8C531.5 52.4 529 49.9 524.3 49.9C519.1 49.9 515.6 53 515.6 60.8V86.3H504.7V57.8C504.7 52.4 501.9 49.9 497.4 49.9C492.3 49.9 488.7 53.1 488.7 60.7V86.3H477.8V40.9H488.6V47.6C490 44 493.6 40.1 500.5 40.1C506.6 40.1 511 42.9 513.2 47.6C514.9 44.4 518.4 40.1 526.6 40.1C536.2 40 542.4 45.9 542.4 55.7ZM169.3 118.3C165.4 118.3 164.7 120.3 164.7 122.9V125.9H173V135.7H164.7V171.2H153.8V135.7H147V125.9H153.8V123.5C153.8 111.3 159.2 108.7 167.6 108.7H174.2V118.4L169.3 118.3ZM224.2 148.6C224.2 163.4 214.9 172.2 201.6 172.2C188.4 172.2 179.1 163.4 179.1 148.6C179.1 133.9 188.4 125.1 201.6 125.1C214.9 125 224.2 133.8 224.2 148.6ZM190.3 148.6C190.3 157.7 195.2 162.1 201.8 162.1C208.9 162.1 213 157.1 213 148.6C213 139.6 208.1 135.2 201.5 135.2C194.4 135.2 190.3 140.1 190.3 148.6ZM274.3 171.2H263.7V164.7C261 168.9 257.3 171.6 251.1 171.6C241.6 171.6 234.8 165.5 234.8 153.9V125.8H245.7V153.2C245.7 159.3 248.9 162 253.6 162C258.7 162 263.4 158.2 263.4 147.8V125.8H274.3V171.2ZM328.7 141.9V171.2H317.8V142.9C317.8 137.8 314.7 134.8 309.3 134.8C302.8 134.8 299.3 139.3 299.3 146.7V171.2H288.4V126H299.3V132.6C301.8 128.4 305.6 125.2 313.1 125.2C323.4 125 328.7 131.2 328.7 141.9ZM384.8 171.2H374V164.3C371.6 169.5 365.9 172.2 359.6 172.2C348.5 172.2 339.2 164.4 339.2 148.5C339.2 132.8 348.5 125.1 359.6 125.1C365.5 125.1 371.1 127.5 373.8 131.9V108.6H384.7L384.8 171.2ZM374.1 148.5C374.1 139.1 368.1 134.7 362.2 134.7C355.8 134.7 350.4 139.2 350.4 148.5C350.4 157.6 355.8 162.2 362.2 162.2C368.1 162.2 374.1 157.8 374.1 148.5ZM435.3 140.8V171.3H424.6V164.7C421.1 170.5 415.2 172.3 410.4 172.3C403.2 172.3 395.8 168.4 395.8 158.8C395.8 147.5 406.1 145.5 410.3 144.9L419.7 143.6C421.7 143.4 425.1 142.4 425.1 138.7C425.1 135.1 421.9 133.7 417.7 133.7C411.6 133.7 408.7 136.5 408.2 140.4H397.7C398.9 129.9 407.9 125.1 418.2 125.1C428.8 125 435.3 130.1 435.3 140.8ZM424.7 152.2V149.8C423.3 150.4 421.8 150.7 419.3 151.1L413.9 151.8C411.1 152.1 406.6 153.4 406.6 157.9C406.6 161.4 409.3 163.1 413.2 163.1C419.6 163.1 424.7 158.5 424.7 152.2ZM472.2 171.2H465C456.4 171.2 451.1 168.5 451.1 156.4V135.7H442.8V125.9H451.1V115.7L462 112.7V125.9H471V135.7H462V156.1C462 159.2 462.9 161.5 467.4 161.5H472L472.2 171.2ZM481.7 107.4H493.3V119.8H481.7V107.4ZM482 171.2H492.9V125.9H482V171.2ZM548.7 148.6C548.7 163.4 539.4 172.2 526.1 172.2C512.9 172.2 503.6 163.4 503.6 148.6C503.6 133.9 512.9 125.1 526.1 125.1C539.5 125 548.7 133.8 548.7 148.6ZM514.9 148.6C514.9 157.7 519.8 162.1 526.4 162.1C533.5 162.1 537.6 157.1 537.6 148.6C537.6 139.6 532.7 135.2 526.1 135.2C519 135.2 514.9 140.1 514.9 148.6ZM600 141.9V171.2H589.1V142.9C589.1 137.8 586 134.8 580.6 134.8C574.1 134.8 570.6 139.3 570.6 146.7V171.2H559.7V126H570.6V132.6C573.1 128.4 576.9 125.2 584.4 125.2C594.7 125 600.1 131.2 600 141.9Z" fill="#22222D"/>
</svg>
